<svg xmlns="http://www.w3.org/2000/svg" id="_레이어_1" viewBox="0 0 1024 910"><defs><style>.cls-1{fill:#b02023}.cls-2{fill:#c32b2a}.cls-3{fill:#fff}</style></defs><path d="M822.62 0c17.03.21 33.03 1.83 48.01 4.86 36.94 7.47 73.81 15.26 110.61 23.38 9.11 2.01 18.03 4.17 26.78 6.47.9.23.93.56.09.97l-11.35 5.54c-7.39-1.8-13.1-3-17.14-3.6a592 592 0 0 1-42.94-8.06c-6.85-1.55-13.56-2.23-20.04-4-11.41-3.12-25.29-6.83-35.82-7.88-10.29-1.03-17.91-1.81-22.86-2.32-21.95-2.27-45.45-2.31-70.5-.11-14.74 1.29-29.51 4.98-42.92 8.7-5.23 1.46-10.18 3.75-15.37 5.41q-4.395 1.395-11.34 4.5c-7.87 3.51-15.7 7.42-23.49 11.74-11.1 6.15-18.4 10.35-21.89 12.58-13.95 8.93-26.22 17.76-36.81 26.48-10.88 8.96-20.77 18.16-33.57 25.41-12.59 7.13-20.69 11.78-24.31 13.93-1.72 1.02-3.54 2.55-5.47 4.6l-22.24 9.15c-.9.37-.9.72.01 1.07 7.78 2.97 16.56 6.02 26.34 9.13 1.61.51 3.2.65 4.75.41 3.77-.58 6.62-1.13 8.53-1.66 24.41-6.72 43.35-12.87 56.81-18.44 28.23-11.69 50.09-20.58 65.59-26.67a484.6 484.6 0 0 1 111.44-29.08c21.19-2.9 43.25-.79 64.44 3.07 42.14 7.69 83.97 20.9 124.45 35.6.69.25.68.48-.03.68l-5.09 1.43c-7.36-1.14-14.72-1.94-21.96-3.37-10.07-1.99-18.85-3.45-26.32-4.38-15.27-1.91-26.95-3.97-39.75-4.66-21.41-1.17-35.34-1.81-41.81-1.92-14.53-.25-32.31.37-53.33 1.85-7.27.51-16.88 1.72-28.84 3.62-22.84 3.62-45.69 9.28-65.98 18.75-16.1 7.51-35.39 15.98-43.83 19.53-8.11 3.39-18.4 7.18-30.87 11.36-6.8 2.28-15.25 5.92-23.13 8.13-.63.17-1.98.84-4.06 1.99 17.75 5.93 35.37 11.25 52.87 15.94 13.46 4.03 26.64 7.8 39.53 11.32 23.24 6.35 46.6 12.24 70.07 17.65 5.72 1.32 11.45 2.57 17.2 3.76 1.59.33 3.24.74 4.97 1.24 11.85 2.38 20.6 4.08 26.23 5.11 44.03 7.99 88.84 15.67 134.41 23.06 2.8.46 6.07 2.9 7.24 6.17q.375 1.035 1.59 3.57c.75 1.56.62 3.86-.39 6.91-2.26 6.78-7.36 12.74-12.48 17.71-.36.35-.79.49-1.28.41a579 579 0 0 0-57.73-6.14c-1.69-.09-1.73.15-.14.72l45.8 16.43c.09.04.14.14.1.23-.01.03-.03.05-.05.07-19.57 15.09-41.14 27.67-63.55 38.89-.33.17-.71.18-1.05.05-38.11-14.81-74.66-28.42-109.63-40.81-1.99-.71-2.09-.51-.28.58 29.41 17.83 59.63 34.3 90.64 49.41.2.09.29.33.19.53a.4.4 0 0 1-.2.2l-15.23 6.9-7.47 3.94c-.24-.25-.58-.28-1.01-.11-24.48 9.91-46.31 18.08-65.48 24.51-6.37 2.13-12.74 4.11-19.1 5.93-37.08 10.61-65.2 17.99-84.36 22.16-29.03 6.31-62.07 11.81-99.12 16.48-6.67.84-13.3 1.58-19.88 2.23-93.4 9.13-188.36 9.17-281.33-2.38l-9.07-1.5a818 818 0 0 1-96.47-22.37c-.4-.12-.43-.3-.08-.54 41.5-28.91 80.11-60.52 115.82-94.83.93-.89.82-1.03-.31-.44-48.58 25.65-94.38 55.14-137.41 88.47-.25.2-.57.27-.88.21-.31-.05-.92-.24-1.85-.55-20.76-6.92-39.21-14.12-55.34-21.59a.552.552 0 0 1-.11-.93c13.27-10.89 25.35-21.38 36.22-31.47 1.09-1.01.96-1.2-.38-.56-16.2 7.76-32.45 16.25-48.76 25.46-.34.19-.76.19-1.1 0-6.98-3.89-19.7-11.78-20.13-20.02-.09-1.64-.57-3.24.08-4.72 1.87-4.3 4.84-5.66 9-7.98 1.44-.81 3-1.6 4.69-2.37q15.51-7.095 26.43-11.58c39.4-16.13 78.72-31.96 117.95-47.51 8.71-3.45 17.1-7.14 25.17-11.05 43.72-19.1 86.88-39.4 129.95-60 8.91-4.15 17.82-8.4 26.71-12.74 5.85-2.85 11.68-6.07 17.5-9.64 22.03-13.52 37.85-23.64 64.4-40.68.28-.18.56-.17.83.02 5.87 4.25 11.5 6.79 16.89 7.63 12.02 1.87 22.68-1.12 31.97-8.99a.88.88 0 0 1 1.15 0l2.83 2.36c.19.16.41.2.64.12 7.2-2.46 11.62-4.19 13.27-5.2 15.31-9.32 28.72-19.66 40.24-31.02 10.44-10.29 18.29-17.78 23.54-22.46 21.6-19.22 46.12-34 73.55-44.33C728.56 9.8 773.16 1.11 819.24 0zm-16.87 233.46s-.1 0-.12.05v.02s0 .06.03.08l14.01 10.48s.04.02.06.02l8.27-.77s.08-.06.06-.11c0-.02-.02-.04-.03-.05z" class="cls-2"/><path d="M0 105.02v-1.5C1 93.19 9.28 84.98 17.83 80.1c15.26-8.72 25.8 5.81 33.61 16.52.14.19.09.46-.1.6 0 0-.02.01-.03.02-14.28 8.37-27.03 18.68-38.26 30.92-.29.32-.58.32-.87-.01-5.8-6.58-11.1-14.13-12.18-23.13M812.05 214.1c-1.73-.5-3.38-.91-4.97-1.24-5.75-1.19-11.48-2.44-17.2-3.76-23.47-5.41-46.83-11.3-70.07-17.65-12.89-3.52-26.07-7.29-39.53-11.32 8.17-6.41 17.58-10.51 28.25-12.32 32.25-5.46 63.52 5.32 87.3 27.62 6.74 6.33 12.15 12.55 16.22 18.67M371.91 190.99c-43.07 20.6-86.23 40.9-129.95 60 4.45-10.97 10.41-20.61 17.87-28.91 23.04-25.62 52.85-39.43 87.36-37.28 8.06.5 16.3 2.56 24.72 6.19M856.24 344.1c6.32 22.39 6.08 45.9 5.97 68.94-.11 22.73-2.79 44.05-8.88 66.58-27.86 102.93-103.75 180.22-201.46 219.54-47.11 18.96-95.75 25.77-145.91 20.43-102.43-10.9-196.84-72.89-250.5-160.22q-24.225-39.45-34.77-84c-4.25-17.97 6.08-29.16 22.59-33.36 8.34-2.13 16.97-3.55 25.89-4.27.33-.03.48-.21.44-.54-.76-7.21-.82-14.49-.19-21.84l9.07 1.5c-.58 6.79-.45 13.51.4 20.15.05.35.25.53.61.54 27.11.31 50.93 8.47 74.06 21.87 3.23 1.87 9.34 5.06 13.33 7.55 16.15 10.1 31.4 19.21 45.75 27.32 30.25 17.1 65.1 39.99 99.01 58.08 15.19 8.11 31.49 14.97 47.99 19.49 44.97 12.3 89.16 9.14 132.55-9.49 2.69-1.16 4.86-2.22 6.51-3.17q39.195-22.56 40.32-23.22c3.1-1.83 7.24-4.76 12.43-8.78 13.9-10.76 26.27-21.72 37.11-32.87 27.03-27.82 46.34-59.55 57.94-95.19 1.7-5.22 4.21-9.08 6.96-12.68.67-.87 1.02-1.52 1.03-1.95.35-12.17-1.55-24.32-5.72-36.47zM1024 814.1v.53l-9.8 70.7a.66.66 0 0 1-.66.57c-16.27-.01-32.62-.01-49.04 0-3.01 0-5.1-1.31-6.26-3.95-.59-1.34-.69-3.52-.28-6.55a8931 8931 0 0 1 5.09-37.56.68.68 0 0 1 .68-.59h34.24c.31 0 .49-.16.54-.47l3.21-22.5a.28.28 0 0 1 .28-.24zm-39.88 34.29c-.25 0-.47.18-.51.43l-4.24 25.35c-.05.28.14.55.42.6h12.879999999999999c.25 0 .47-.18.51-.43l4.24-25.35a.52.52 0 0 0-.42-.6h-12.879999999999999M231 910h-22.23c2.04-2.39 4.14-4.69 6.31-6.88 1.57-1.59 2.83-3.3 3.8-5.13 2.21-4.19 4.42-8.37 6.63-12.56.22-.43.27-.93.13-1.39a8803 8803 0 0 1-11.81-40.17c-.87-3-1.61-4.13-3.57-5.89-.55-.5-.46-.75.29-.75h22.96c.32 0 .6.22.68.53l5.62 22.97c.03.15.17.24.32.21.08-.02.16-.07.19-.15l9.92-20.87c.14-.29.1-.56-.12-.8l-1.27-1.34c-.34-.36-.26-.54.23-.54h24.17c.18 0 .32.15.32.32 0 .05-.01.1-.04.15-11.85 21.86-23.69 43.71-35.53 65.55-1.89 3.47-4.22 5.72-7 6.74M804.73 910h-51.72l2.02-14.9c.03-.25.14-.29.33-.13l4.5 3.75c.09.08.21.12.33.12h28.74c.25 0 .47-.18.52-.43l2.01-12.07a.38.38 0 0 0-.31-.45h-34.29c-.4 0-.73-.33-.73-.73v-.1l6.77-47.45c.03-.24.17-.36.41-.36h56.71c.19 0 .35.16.35.35v.06c-4.03 29.62-6.97 51.25-8.82 64.88-.49 3.63-2.77 6.12-6.83 7.47Zm-20.34-61.62c-.18 0-.33.13-.36.31l-4.27 25.51c-.03.2.1.39.31.43h12.290000000000001c.18 0 .33-.13.36-.31l4.27-25.51c.03-.2-.1-.39-.31-.43h-12.290000000000001" class="cls-3"/><path d="M996.76 41.22c-8.12 4.07-16.16 8.04-24.13 11.9-1.5.73-2.07 1.5-3.87.81-6.73-2.59-24.4-8.39-53.02-17.41-47.66-15.03-97.63-19.12-146.82-9.65-26.9 5.17-53.16 13.21-77.58 25.44-17.44 8.72-33.52 20.21-48.69 32.6q-16.755 13.695-28.77 22.47c-3.56 2.59-7.5 4.99-11.82 7.19-9.77 4.96-19.7 9.64-29.77 14.03 1.93-2.05 3.75-3.58 5.47-4.6 3.62-2.15 11.72-6.8 24.31-13.93 12.8-7.25 22.69-16.45 33.57-25.41 10.59-8.72 22.86-17.55 36.81-26.48 3.49-2.23 10.79-6.43 21.89-12.58 7.79-4.32 15.62-8.23 23.49-11.74q6.945-3.105 11.34-4.5c5.19-1.66 10.14-3.95 15.37-5.41 13.41-3.72 28.18-7.41 42.92-8.7 25.05-2.2 48.55-2.16 70.5.11 4.95.51 12.57 1.29 22.86 2.32 10.53 1.05 24.41 4.76 35.82 7.88 6.48 1.77 13.19 2.45 20.04 4 14.09 3.19 28.4 5.88 42.94 8.06 4.04.6 9.75 1.8 17.14 3.6M1007.29 113.29c-7.48 2.05-19.85 7.67-23.82 15.28-1.07 2.04-2.31 5.62-3.73 10.74-1.67 6.01-1.87 12.18-.62 18.51.07.33-.02.38-.27.14-46.81-45.06-118.59-47.16-178.18-36.83-20.48 3.55-40.5 8.47-60.19 14.86-32.46 10.54-64.58 20.84-98.1 26.41-2.87.48-7.86 1.08-14.97 1.79 2.08-1.15 3.43-1.82 4.06-1.99 7.88-2.21 16.33-5.85 23.13-8.13 12.47-4.18 22.76-7.97 30.87-11.36 8.44-3.55 27.73-12.02 43.83-19.53 20.29-9.47 43.14-15.13 65.98-18.75 11.96-1.9 21.57-3.11 28.84-3.62 21.02-1.48 38.8-2.1 53.33-1.85 6.47.11 20.4.75 41.81 1.92 12.8.69 24.48 2.75 39.75 4.66 7.47.93 16.25 2.39 26.32 4.38 7.24 1.43 14.6 2.23 21.96 3.37" class="cls-1"/><path d="M493.74 96.86c.48 1.25.71 1.21.7-.13-.26-20.34-3.22-40.55-8.87-60.62-.11-.4.12-.82.52-.93q.09-.03.18-.03l14.36-.51c.23 0 .42.17.42.4v.07c-3.43 22.76-2.49 45.34 2.82 67.75.09.39.2.39.33.02.18-.53.33-1.35.45-2.45 2.39-21.72 2.64-43.51.76-65.36-.04-.39.14-.59.53-.61l22.21-.79c.18 0 .33.13.33.31 0 .05 0 .11-.03.16-8.49 17.52-13.64 35.61-15.47 54.27-.09.91.1.97.56.18 9.82-16.81 15.97-34.95 18.46-54.4q.075-.525.6-.6c3.64-.43 14.93-.9 15.06 5.29.05 2.3-.45 4.49-1.51 6.58-5.68 11.24-11.09 23.5-16.22 36.78-3.71 9.61-6.75 18.64-5.86 28.56.03.35-.12.59-.43.73-11.2 5.02-22.4 7.5-33.59 7.43-.37 0-.54-.19-.49-.56 1.22-9.03-1.52-17.87-5.4-25.68-6.78-13.65-15.1-27.84-24.95-42.56-1.65-2.46-2.71-4.74-3.19-6.83-1.48-6.51 7.46-7.24 12.04-7.47 4.33-.21 8.28-.34 11.87-.39.2 0 .36.15.37.34q2.115 31.335 13.44 61.05" class="cls-2"/><path d="M74.74 127.9c-13.88 7.97-27.06 16.7-39.55 26.2-.29.22-.7.18-.93-.1l-18.64-21.76a.457.457 0 0 1 .05-.64c.02-.01.03-.03.05-.04l41.54-26.63q.405-.255.69.12l16.93 22.13c.16.21.12.52-.09.69-.02.01-.03.02-.05.03M59.46 183.35l-21.82-25.47a.46.46 0 0 1 .05-.65c.03-.03.07-.05.11-.07a583 583 0 0 0 42.98-21.39c.33-.18.74-.09.96.2l15.53 20.29c.13.17.1.42-.07.55-.01 0-.03.02-.04.03a350 350 0 0 0-37.07 26.57c-.19.15-.47.12-.63-.06M62.18 185.62l40.98-21.33c.2-.1.44-.04.57.13l73.41 95.91c.16.2.12.49-.08.65-.03.03-.07.05-.11.06l-37.5 15.14c-.19.08-.4.02-.53-.13l-76.87-89.72a.46.46 0 0 1 .04-.65zM714.4 412.77c.13-.03.27.03.34.14 7.79 12.4 12.48 25.62 14.06 39.66 2.18 19.52-7.21 43.24-27.48 50.06-14.86 5-29.49.16-39.06-12.41-2.63-3.44-5.04-7.18-7.25-11.23-2.47-4.52-6.2-11.44-11.21-20.75a91 91 0 0 0-6.78-10.75c-4.37-6-11.03-11.18-17.11-15.68-.59-.45-.52-.72.21-.82 33.55-4.66 64.97-10.73 94.28-18.22M429.78 490.97c-12.48-7.54-25.28-14.44-37.73-21.98-3.2-1.94-13.19-8-29.96-18.19-.36-.22-.5-.54-.41-.95l1.69-7.7c.08-.36.3-.53.67-.51 29.19 1.69 58.46 2.37 87.83 2.04.17 0 .3.13.3.3 0 .04-.01.09-.03.13a148 148 0 0 0-5.57 13.32c-4.27 11.79-8.4 23.58-15.91 33.37-.24.32-.53.38-.88.17M550.33 504.78c-.76-.12-1.98-.27-3.66-.44q-16.755-1.725-26.82-14.85c-7.84-10.25-3.12-21.17 8.85-23.84 15.77-3.52 31.28-4.83 46.55-3.92 12.43.74 17.73 10.95 12.03 21.81-4.79 9.1-12.05 15.33-21.8 18.68-1.2.41-2.13.75-2.79 1.04q-.465.195-.39.69l3.46 25.78c.08.57.42 1.08.92 1.36 16.95 9.56 32.87 20.98 47.78 34.27.45.41.38.61-.23.61-8.23.02-16.4-.42-24.49-1.33-1.95-.22-3.72-.79-5.33-1.71q-14.25-8.145-25.35-19.38a.33.33 0 0 0-.47 0s-.02.02-.02.03l-9.12 10.94c-.33.4-.87.54-1.36.37l-17.05-6.12a.587.587 0 0 1-.36-.75c.03-.1.09-.18.17-.25l18.27-15.65c.21-.19.33-.42.35-.7l1.29-26.09c.01-.31-.13-.49-.43-.54ZM82.01 885.9H63.83a.35.35 0 0 1-.35-.33c0-.05 0-.09.03-.14l25.23-61.4c.06-.14.01-.3-.1-.39l-2.81-2.34a.345.345 0 0 1-.04-.48c.06-.08.16-.12.26-.12h44.57c.17 0 .32.12.34.29l8.67 64.51c.03.19-.1.36-.29.39h-19.25c-.17 0-.32-.12-.34-.29l-2.3-17.13a.336.336 0 0 0-.34-.29H90.18c-.13 0-.25.08-.31.2l-7.55 17.32c-.06.12-.18.2-.31.2m23.7-54.04c-.15 0-.28.09-.34.22L94.7 856.54a.37.37 0 0 0 .34.52h20.98c.2 0 .37-.17.36-.38v-.04l-3.29-24.46a.366.366 0 0 0-.36-.32zM485.35 846.92h-11.06c-.27 0-.48-.21-.48-.48v-.02l1.26-25.26c.01-.26.22-.46.48-.46h13.41c.27 0 .48.22.48.48v.07l-3.6 25.26c-.04.24-.24.41-.48.41ZM642.12 874.78h42.01c.42 0 .6.21.54.62l-1.46 10.23a.29.29 0 0 1-.29.25c-36.99.03-56.2.02-57.62-.05-4.61-.22-6.46-4.53-5.96-8.54 2.14-17.18 4.29-34.26 6.44-51.25.08-.61-.07-1.16-.44-1.65l-2.39-3.12a.349.349 0 0 1 .28-.57h25.32c.29 0 .53.24.53.53v.07l-7.53 52.82c-.06.44.13.66.58.66ZM380.32 848.91a.47.47 0 0 0-.39-.52h-11.98c-.44 0-.69.22-.75.65l-5.2 36.42c-.04.26-.27.45-.55.45h-21.38c-.17 0-.3-.13-.3-.3v-.04l6.34-44.46a.95.95 0 0 0-.15-.71c-.54-.82-1.15-1.48-1.84-1.98-1.08-.79-.95-1.18.39-1.18h58.96c.25 0 .45.2.45.45v.07l-6.79 47.62c-.04.3-.3.52-.61.52h-20.91c-.38 0-.54-.19-.49-.56zM930.67 848.91a.47.47 0 0 0-.39-.52H918.3c-.44 0-.69.22-.75.65l-5.2 36.41c-.04.26-.27.45-.55.45h-21.38c-.17 0-.3-.13-.3-.3v-.04l6.34-44.45a1 1 0 0 0-.15-.71c-.54-.82-1.15-1.48-1.84-1.98-1.08-.79-.95-1.18.39-1.18h58.96c.25 0 .45.2.45.45v.07l-6.79 47.61c-.04.3-.3.52-.61.52h-20.91c-.38 0-.54-.19-.49-.56zM183.76 848.91a.47.47 0 0 0-.39-.52H171.4c-.44 0-.69.21-.75.64l-5.21 36.41c-.04.26-.27.45-.55.45h-21.37c-.17 0-.3-.14-.3-.31v-.04l6.35-44.44a1 1 0 0 0-.15-.71c-.54-.82-1.15-1.48-1.84-1.98-1.08-.79-.95-1.18.39-1.18l58.94.02c.25 0 .45.2.45.45v.07l-6.8 47.6c-.04.3-.3.52-.61.52h-20.91c-.38 0-.54-.2-.49-.57zM305.25 885.9h-23.87c-5.16.09-7.41-4.75-6.79-9.23 2.51-18.31 4.28-31.26 5.3-38.87a.61.61 0 0 1 .58-.52c1.68-.02 10.09-.03 25.22-.03s23.63 0 23.86-.01c5.17-.09 7.42 4.75 6.8 9.23-2.51 18.31-4.28 31.26-5.3 38.87-.04.3-.29.52-.59.52-1.67.02-10.08.03-25.21.03Zm4.19-11.13c.21 0 .39-.15.42-.35l4.27-25.54a.413.413 0 0 0-.34-.48h-12.37a.42.42 0 0 0-.42.35l-4.28 25.54c-.04.23.12.45.34.48h12.38M430 874.79h29.76c.23 0 .46-.08.65-.23l4.83-3.69c.49-.38.67-.26.54.35l-3.11 14.24c-.06.26-.29.44-.55.44-20.36 0-35.73-.01-46.11-.02-2.49 0-4.13-.16-4.94-.49-4.9-2.01-3.68-8.3-3.14-12.36 1.59-11.84 3.18-23.61 4.78-35.31.04-.27.27-.47.54-.47h56.49c.2 0 .37.17.37.38v.05l-3.93 27.57c-.07.5-.38.75-.92.75h-34.07c-.35 0-.56.18-.61.53l-1.09 7.67c-.06.39.11.59.51.59m16.94-25.98c.03-.2-.1-.38-.29-.41h-12.5c-.17 0-.32.13-.35.3l-.96 5.75c-.03.2.1.38.29.41h12.5c.17 0 .32-.13.35-.3zM527.25 867.1h-31.92c-.22 0-.4-.17-.4-.4v-.06l4.11-28.81a.67.67 0 0 1 .67-.59h52.05c.31 0 .45.16.4.49l-1.91 13.41a.57.57 0 0 1-.56.48h-18.07c-.36 0-.59-.17-.69-.52q-.195-.66.27-1.59a.78.78 0 0 0-.34-1.04.8.8 0 0 0-.34-.08h-11.79c-.43 0-.68.21-.74.63l-.9 6.36c-.05.37.11.55.48.55h31.13c.19 0 .34.15.34.34v.04c-1.06 10.33-1.67 16.38-1.84 18.17-.31 3.37-.99 5.77-2.05 7.19-2.31 3.13-5.48 4.19-9.55 4.21-8.46.04-22.61.04-42.45-.01-.41 0-.58-.21-.52-.61l1.96-13.78c.13-.85.45-.93.97-.25l2.38 3.1c.23.3.52.45.89.45h27.45c.32 0 .59-.24.63-.55l.92-6.46c.07-.45-.13-.67-.58-.67M709.59 866.53l-1.09 7.67c-.06.39.11.59.51.59h29.76c.23 0 .46-.08.65-.23l4.83-3.69c.49-.38.67-.26.54.35l-3.11 14.24c-.06.26-.29.44-.55.44-20.36 0-35.73-.01-46.11-.02-2.49 0-4.13-.16-4.94-.49-4.9-2-3.68-8.3-3.14-12.36q2.385-17.76 4.77-35.31c.04-.27.27-.47.54-.47h56.5c.2 0 .37.17.37.38v.05l-3.93 27.57c-.07.5-.38.75-.92.75H710.2c-.35 0-.56.18-.61.53m2.26-12.09c-.03.2.1.38.29.41h12.5c.17 0 .32-.13.35-.3l.96-5.75c.03-.2-.1-.38-.29-.41h-12.5c-.17 0-.32.13-.35.3zM846.69 866.53l-1.08 7.68c-.06.39.11.59.51.59h29.77c.23 0 .46-.09.65-.24l4.83-3.7c.49-.38.67-.26.54.35l-3.11 14.25c-.06.26-.29.44-.55.44-20.37 0-35.74 0-46.12-.01-2.49 0-4.14-.16-4.95-.49-4.9-2-3.68-8.3-3.14-12.36 1.59-11.84 3.18-23.61 4.77-35.32.04-.27.27-.47.54-.47l56.51-.02c.2 0 .37.17.37.38v.05l-3.93 27.58c-.07.5-.37.75-.92.75H847.3c-.35.01-.56.19-.61.54m2.27-12.07c-.03.18.09.36.27.39h12.520000000000001c.17 0 .31-.12.34-.28l.96-5.79a.34.34 0 0 0-.27-.39h-12.520000000000001c-.17 0-.31.12-.34.28zM509.03 271.13c-4.17-20.9-3.02-40.78 2.36-61.44.23-.91.53-.93.88-.06 7.77 19.2 12.42 39.19 13.96 59.96.02.37-.25.69-.62.72l-15.73 1.45c-.4.04-.77-.23-.85-.63M640.16 211.47c19.43 12.53 37.07 26.93 51.07 45.32.11.15.08.35-.07.46-.05.04-.11.06-.17.07l-18.46 1.7c-.34.03-.64-.07-.89-.31-14.05-13.31-24.79-28.84-32.24-46.6-.43-1.03-.18-1.25.76-.64M356.49 268.01q-1.305 8.475-2.43 12.96a.48.48 0 0 1-.42.36l-17.07 1.57a.636.636 0 0 1-.69-.57c0-.1 0-.19.04-.28 5.7-15.25 13.23-29.52 22.59-42.79.25-.35.51-.44.78-.29.11.06.18.18.17.3q-.75 14.475-2.97 28.74" class="cls-3"/></svg>